<svg xmlns="http://www.w3.org/2000/svg" xmlns:xlink="http://www.w3.org/1999/xlink" width="500" zoomAndPan="magnify" viewBox="0 0 375 374.999991" height="500" preserveAspectRatio="xMidYMid meet" version="1.0"><defs><g/><clipPath id="f733f73feb"><path d="M 167.785156 120.675781 L 312.984375 120.675781 L 312.984375 254.128906 L 167.785156 254.128906 Z M 167.785156 120.675781 " clip-rule="nonzero"/></clipPath><clipPath id="68df052732"><path d="M 59.039062 120.675781 L 157.9375 120.675781 L 157.9375 254 L 59.039062 254 Z M 59.039062 120.675781 " clip-rule="nonzero"/></clipPath><clipPath id="747b6f0726"><path d="M 37.28125 179.410156 L 335.03125 179.410156 L 335.03125 235.660156 L 37.28125 235.660156 Z M 37.28125 179.410156 " clip-rule="nonzero"/></clipPath></defs><path stroke-linecap="butt" transform="matrix(0.748127, -0.0031352, 0.00314302, 0.749993, 141.362309, 296.389932)" fill="none" stroke-linejoin="miter" d="M -0.000804656 0.500925 L 119.3128 0.499687 " stroke="#000000" stroke-width="1" stroke-opacity="1" stroke-miterlimit="4"/><g clip-path="url(#f733f73feb)"><path fill="#545454" d="M 238.234375 129.328125 C 242.761719 129.328125 246.71875 127.816406 248.914062 125.554688 L 279.03125 125.554688 C 297.769531 125.554688 313.101562 140.882812 313.101562 159.621094 C 313.101562 160.660156 311.679688 160.917969 311.253906 159.976562 C 306.082031 148.402344 294.449219 140.289062 281.007812 140.289062 L 272.328125 140.289062 C 269.566406 140.289062 267.285156 142.457031 267.148438 145.214844 L 266.53125 157.386719 L 263.546875 157.386719 L 263.546875 247.371094 C 263.546875 251.105469 260.515625 254.136719 256.78125 254.136719 L 256.332031 254.136719 C 252.59375 254.136719 249.566406 251.105469 249.566406 247.371094 L 249.566406 157.386719 L 247.296875 157.386719 L 246.589844 143.429688 C 246.46875 141.0625 244.808594 139.023438 242.496094 138.492188 C 241.167969 138.1875 239.730469 138.019531 238.230469 138.019531 C 234.796875 138.019531 231.6875 138.886719 229.425781 140.289062 L 222.148438 140.289062 L 222.148438 125.554688 L 227.546875 125.554688 C 229.75 127.816406 233.703125 129.328125 238.234375 129.328125 Z M 256.558594 246.246094 C 258.105469 246.246094 259.363281 244.992188 259.363281 243.445312 C 259.363281 241.898438 258.105469 240.640625 256.558594 240.640625 C 255.011719 240.640625 253.753906 241.898438 253.753906 243.445312 C 253.753906 244.992188 255.011719 246.246094 256.558594 246.246094 Z M 168.898438 134.359375 C 171.453125 126.75 178.070312 121.675781 185.519531 120.675781 L 179.816406 137.648438 C 179.132812 139.695312 180.230469 141.914062 182.28125 142.601562 L 191.871094 145.824219 C 193.917969 146.511719 196.136719 145.410156 196.824219 143.363281 L 202.527344 126.390625 C 207.863281 131.6875 210.070312 139.726562 207.511719 147.335938 C 205.714844 152.691406 201.898438 156.800781 197.195312 159.113281 C 192.609375 161.371094 189.699219 166.027344 189.855469 171.136719 L 192.449219 245.183594 C 192.59375 249.863281 189.015625 254.015625 184.335938 254.128906 C 179.539062 254.242188 175.648438 250.308594 175.800781 245.539062 L 178.570312 165.683594 C 178.6875 161.964844 177.199219 158.363281 174.453125 155.847656 C 168.699219 150.578125 166.25 142.234375 168.898438 134.359375 Z M 184.132812 244.042969 C 185.886719 244.042969 187.308594 242.617188 187.308594 240.867188 C 187.308594 239.109375 185.886719 237.691406 184.132812 237.691406 C 182.375 237.691406 180.957031 239.113281 180.957031 240.867188 C 180.957031 242.621094 182.378906 244.042969 184.132812 244.042969 Z M 184.132812 244.042969 " fill-opacity="1" fill-rule="nonzero"/></g><g clip-path="url(#68df052732)"><path fill="#545454" d="M 84.292969 185.289062 C 85.074219 188.296875 89.046875 189.917969 89.046875 193.796875 C 89.046875 196.414062 86.917969 198.539062 84.292969 198.546875 L 84.265625 198.546875 C 81.640625 198.539062 79.511719 196.414062 79.511719 193.796875 C 79.511719 189.917969 83.484375 188.289062 84.265625 185.289062 C 84.265625 185.277344 84.273438 185.269531 84.273438 185.265625 C 84.285156 185.269531 84.285156 185.285156 84.292969 185.289062 Z M 157.9375 141.066406 L 157.9375 153.128906 C 157.9375 156.355469 156.390625 159.4375 153.804688 161.378906 L 108.660156 190.121094 C 106.757812 191.542969 105.621094 193.804688 105.621094 196.175781 L 105.621094 205.03125 L 107.710938 205.03125 C 109.527344 205.03125 110.988281 206.488281 110.988281 208.292969 L 110.988281 250.628906 C 110.988281 252.425781 109.527344 253.890625 107.710938 253.890625 L 99.324219 253.890625 C 97.511719 253.890625 96.046875 252.425781 96.046875 250.628906 L 96.046875 208.292969 C 96.046875 206.488281 97.511719 205.03125 99.324219 205.03125 L 101.144531 205.03125 L 101.144531 196.175781 C 101.144531 192.410156 102.949219 188.8125 105.96875 186.550781 L 151.113281 157.808594 C 152.585938 156.707031 153.460938 154.960938 153.460938 153.128906 L 153.460938 141.066406 C 153.460938 138.972656 151.753906 137.269531 149.648438 137.269531 L 146.222656 137.269531 L 146.222656 142.171875 C 146.222656 142.859375 146.042969 143.507812 145.734375 144.085938 C 145.648438 144.25 145.550781 144.402344 145.449219 144.550781 C 145.230469 144.867188 144.972656 145.15625 144.675781 145.390625 C 144.292969 145.695312 143.855469 145.9375 143.382812 146.09375 C 143.144531 146.167969 142.894531 146.226562 142.640625 146.265625 L 140.449219 146.566406 L 140.449219 147.074219 C 140.449219 147.074219 140.449219 147.082031 140.449219 147.082031 C 140.449219 147.242188 140.4375 147.402344 140.417969 147.558594 C 140.410156 147.601562 140.402344 147.640625 140.398438 147.679688 C 140.378906 147.800781 140.359375 147.925781 140.332031 148.039062 C 140.324219 148.070312 140.3125 148.109375 140.308594 148.140625 C 140.273438 148.277344 140.230469 148.40625 140.183594 148.539062 C 140.175781 148.554688 140.175781 148.566406 140.171875 148.574219 C 139.640625 149.96875 138.402344 151.015625 136.894531 151.277344 C 136.867188 151.285156 136.84375 151.285156 136.824219 151.292969 C 136.601562 151.324219 136.382812 151.347656 136.160156 151.347656 L 88.222656 151.347656 L 88.222656 173.054688 C 88.222656 175.046875 86.582031 176.679688 84.582031 176.679688 C 82.582031 176.679688 80.945312 175.046875 80.945312 173.054688 L 80.945312 151.355469 L 77.964844 151.355469 L 77.964844 157.570312 C 77.964844 159.382812 76.472656 160.867188 74.652344 160.867188 C 72.835938 160.867188 71.34375 159.382812 71.34375 157.570312 L 71.34375 151.355469 L 63.332031 151.355469 C 62.292969 151.355469 61.34375 150.988281 60.601562 150.378906 C 60.5 150.289062 60.394531 150.199219 60.296875 150.101562 C 60.164062 149.96875 60.035156 149.8125 59.917969 149.660156 C 59.820312 149.53125 59.722656 149.394531 59.640625 149.253906 C 59.582031 149.152344 59.523438 149.046875 59.472656 148.9375 C 59.195312 148.375 59.039062 147.742188 59.039062 147.082031 L 59.039062 125.191406 C 59.039062 122.832031 60.964844 120.917969 63.332031 120.917969 L 136.144531 120.917969 C 136.371094 120.917969 136.589844 120.941406 136.804688 120.972656 C 136.828125 120.980469 136.855469 120.980469 136.878906 120.988281 C 138.390625 121.25 139.628906 122.296875 140.160156 123.691406 C 140.164062 123.707031 140.164062 123.71875 140.171875 123.726562 C 140.214844 123.851562 140.261719 123.988281 140.292969 124.121094 C 140.300781 124.15625 140.3125 124.195312 140.320312 124.226562 C 140.34375 124.339844 140.371094 124.464844 140.382812 124.585938 C 140.390625 124.625 140.398438 124.667969 140.402344 124.707031 C 140.421875 124.863281 140.429688 125.023438 140.4375 125.183594 C 140.4375 125.183594 140.4375 125.191406 140.4375 125.191406 L 140.4375 125.699219 L 142.628906 126 C 144.679688 126.28125 146.214844 128.03125 146.214844 130.097656 L 146.214844 132.8125 L 149.640625 132.8125 C 154.214844 132.8125 157.9375 136.511719 157.9375 141.066406 Z M 134.011719 127.15625 C 134.054688 127.15625 134.101562 127.148438 134.140625 127.136719 C 134.175781 127.125 134.222656 127.109375 134.261719 127.105469 C 134.449219 127.074219 134.628906 127.007812 134.789062 126.917969 C 135.273438 126.648438 135.609375 126.148438 135.609375 125.554688 C 135.609375 125.363281 135.566406 125.191406 135.5 125.015625 C 135.417969 124.785156 135.28125 124.578125 135.113281 124.414062 C 134.828125 124.128906 134.441406 123.957031 134.011719 123.957031 L 66.1875 123.957031 C 65.75 123.957031 65.351562 124.136719 65.054688 124.425781 C 64.757812 124.714844 64.582031 125.125 64.582031 125.5625 C 64.582031 126.109375 64.867188 126.597656 65.292969 126.886719 C 65.550781 127.058594 65.855469 127.164062 66.1875 127.164062 L 134.011719 127.164062 Z M 105.710938 246.597656 C 105.710938 245.390625 104.730469 244.414062 103.519531 244.414062 C 102.304688 244.414062 101.324219 245.390625 101.324219 246.597656 C 101.324219 247.804688 102.304688 248.78125 103.519531 248.78125 C 104.730469 248.78125 105.710938 247.804688 105.710938 246.597656 Z M 74.152344 164.160156 C 72.597656 164.160156 71.335938 165.414062 71.335938 166.964844 C 71.335938 168.511719 72.597656 169.765625 74.152344 169.765625 C 75.707031 169.765625 76.964844 168.511719 76.964844 166.964844 C 76.964844 165.414062 75.707031 164.160156 74.152344 164.160156 Z M 74.152344 164.160156 " fill-opacity="1" fill-rule="nonzero"/></g><g fill="#545454" fill-opacity="1"><g transform="translate(136.608192, 284.408532)"><g><path d="M 0.921875 -18.90625 C 0.921875 -20.914062 1.398438 -22.457031 2.359375 -23.53125 C 3.316406 -24.613281 4.757812 -25.15625 6.6875 -25.15625 C 8.601562 -25.15625 10.039062 -24.613281 11 -23.53125 C 11.957031 -22.457031 12.4375 -20.914062 12.4375 -18.90625 L 12.4375 -17.9375 L 8.734375 -17.9375 L 8.734375 -19.15625 C 8.734375 -20.050781 8.5625 -20.679688 8.21875 -21.046875 C 7.875 -21.421875 7.394531 -21.609375 6.78125 -21.609375 C 6.164062 -21.609375 5.6875 -21.421875 5.34375 -21.046875 C 5 -20.679688 4.828125 -20.050781 4.828125 -19.15625 C 4.828125 -18.300781 5.015625 -17.546875 5.390625 -16.890625 C 5.773438 -16.242188 6.25 -15.628906 6.8125 -15.046875 C 7.382812 -14.460938 7.992188 -13.878906 8.640625 -13.296875 C 9.296875 -12.722656 9.90625 -12.09375 10.46875 -11.40625 C 11.039062 -10.71875 11.515625 -9.9375 11.890625 -9.0625 C 12.273438 -8.1875 12.46875 -7.15625 12.46875 -5.96875 C 12.46875 -3.957031 11.972656 -2.410156 10.984375 -1.328125 C 10.003906 -0.253906 8.554688 0.28125 6.640625 0.28125 C 4.722656 0.28125 3.269531 -0.253906 2.28125 -1.328125 C 1.300781 -2.410156 0.8125 -3.957031 0.8125 -5.96875 L 0.8125 -7.671875 L 4.515625 -7.671875 L 4.515625 -5.71875 C 4.515625 -4.820312 4.695312 -4.191406 5.0625 -3.828125 C 5.425781 -3.472656 5.914062 -3.296875 6.53125 -3.296875 C 7.15625 -3.296875 7.648438 -3.472656 8.015625 -3.828125 C 8.378906 -4.191406 8.5625 -4.820312 8.5625 -5.71875 C 8.5625 -6.570312 8.367188 -7.320312 7.984375 -7.96875 C 7.609375 -8.625 7.132812 -9.238281 6.5625 -9.8125 C 6 -10.394531 5.390625 -10.976562 4.734375 -11.5625 C 4.085938 -12.144531 3.476562 -12.78125 2.90625 -13.46875 C 2.34375 -14.15625 1.867188 -14.9375 1.484375 -15.8125 C 1.109375 -16.6875 0.921875 -17.71875 0.921875 -18.90625 Z M 0.921875 -18.90625 "/></g></g></g><g fill="#545454" fill-opacity="1"><g transform="translate(149.8963, 284.408532)"><g><path d="M 5.328125 -14.390625 L 10.6875 -14.390625 L 10.6875 -10.84375 L 5.328125 -10.84375 L 5.328125 -3.546875 L 12.078125 -3.546875 L 12.078125 0 L 1.421875 0 L 1.421875 -24.875 L 12.078125 -24.875 L 12.078125 -21.3125 L 5.328125 -21.3125 Z M 5.328125 -14.390625 "/></g></g></g><g fill="#545454" fill-opacity="1"><g transform="translate(162.971223, 284.408532)"><g><path d="M 9.59375 0 C 9.539062 -0.164062 9.488281 -0.316406 9.4375 -0.453125 C 9.394531 -0.597656 9.359375 -0.773438 9.328125 -0.984375 C 9.296875 -1.203125 9.269531 -1.476562 9.25 -1.8125 C 9.238281 -2.144531 9.234375 -2.5625 9.234375 -3.0625 L 9.234375 -6.96875 C 9.234375 -8.125 9.03125 -8.9375 8.625 -9.40625 C 8.226562 -9.882812 7.582031 -10.125 6.6875 -10.125 L 5.328125 -10.125 L 5.328125 0 L 1.421875 0 L 1.421875 -24.875 L 7.3125 -24.875 C 9.351562 -24.875 10.828125 -24.398438 11.734375 -23.453125 C 12.648438 -22.503906 13.109375 -21.070312 13.109375 -19.15625 L 13.109375 -17.203125 C 13.109375 -14.640625 12.253906 -12.957031 10.546875 -12.15625 C 11.546875 -11.75 12.226562 -11.085938 12.59375 -10.171875 C 12.957031 -9.265625 13.140625 -8.160156 13.140625 -6.859375 L 13.140625 -3.015625 C 13.140625 -2.398438 13.160156 -1.859375 13.203125 -1.390625 C 13.253906 -0.929688 13.378906 -0.46875 13.578125 0 Z M 5.328125 -21.3125 L 5.328125 -13.671875 L 6.859375 -13.671875 C 7.585938 -13.671875 8.160156 -13.859375 8.578125 -14.234375 C 8.992188 -14.617188 9.203125 -15.3125 9.203125 -16.3125 L 9.203125 -18.765625 C 9.203125 -19.660156 9.039062 -20.304688 8.71875 -20.703125 C 8.40625 -21.109375 7.90625 -21.3125 7.21875 -21.3125 Z M 5.328125 -21.3125 "/></g></g></g><g fill="#545454" fill-opacity="1"><g transform="translate(177.254156, 284.408532)"><g><path d="M 7.3125 -4.578125 L 10.296875 -24.875 L 13.890625 -24.875 L 10.0625 0 L 4.234375 0 L 0.390625 -24.875 L 4.328125 -24.875 Z M 7.3125 -4.578125 "/></g></g></g><g fill="#545454" fill-opacity="1"><g transform="translate(191.537089, 284.408532)"><g><path d="M 1.421875 -24.875 L 5.328125 -24.875 L 5.328125 0 L 1.421875 0 Z M 1.421875 -24.875 "/></g></g></g><g fill="#545454" fill-opacity="1"><g transform="translate(198.287735, 284.408532)"><g><path d="M 12.75 -9.28125 L 12.75 -5.96875 C 12.75 -3.957031 12.257812 -2.410156 11.28125 -1.328125 C 10.300781 -0.253906 8.847656 0.28125 6.921875 0.28125 C 5.003906 0.28125 3.550781 -0.253906 2.5625 -1.328125 C 1.582031 -2.410156 1.09375 -3.957031 1.09375 -5.96875 L 1.09375 -18.90625 C 1.09375 -20.914062 1.582031 -22.457031 2.5625 -23.53125 C 3.550781 -24.613281 5.003906 -25.15625 6.921875 -25.15625 C 8.847656 -25.15625 10.300781 -24.613281 11.28125 -23.53125 C 12.257812 -22.457031 12.75 -20.914062 12.75 -18.90625 L 12.75 -16.484375 L 9.0625 -16.484375 L 9.0625 -19.15625 C 9.0625 -20.050781 8.875 -20.679688 8.5 -21.046875 C 8.132812 -21.421875 7.644531 -21.609375 7.03125 -21.609375 C 6.414062 -21.609375 5.925781 -21.421875 5.5625 -21.046875 C 5.195312 -20.679688 5.015625 -20.050781 5.015625 -19.15625 L 5.015625 -5.71875 C 5.015625 -4.820312 5.195312 -4.191406 5.5625 -3.828125 C 5.925781 -3.472656 6.414062 -3.296875 7.03125 -3.296875 C 7.644531 -3.296875 8.132812 -3.472656 8.5 -3.828125 C 8.875 -4.191406 9.0625 -4.820312 9.0625 -5.71875 L 9.0625 -9.28125 Z M 12.75 -9.28125 "/></g></g></g><g fill="#545454" fill-opacity="1"><g transform="translate(212.00219, 284.408532)"><g><path d="M 5.328125 -14.390625 L 10.6875 -14.390625 L 10.6875 -10.84375 L 5.328125 -10.84375 L 5.328125 -3.546875 L 12.078125 -3.546875 L 12.078125 0 L 1.421875 0 L 1.421875 -24.875 L 12.078125 -24.875 L 12.078125 -21.3125 L 5.328125 -21.3125 Z M 5.328125 -14.390625 "/></g></g></g><g fill="#545454" fill-opacity="1"><g transform="translate(225.077113, 284.408532)"><g><path d="M 0.921875 -18.90625 C 0.921875 -20.914062 1.398438 -22.457031 2.359375 -23.53125 C 3.316406 -24.613281 4.757812 -25.15625 6.6875 -25.15625 C 8.601562 -25.15625 10.039062 -24.613281 11 -23.53125 C 11.957031 -22.457031 12.4375 -20.914062 12.4375 -18.90625 L 12.4375 -17.9375 L 8.734375 -17.9375 L 8.734375 -19.15625 C 8.734375 -20.050781 8.5625 -20.679688 8.21875 -21.046875 C 7.875 -21.421875 7.394531 -21.609375 6.78125 -21.609375 C 6.164062 -21.609375 5.6875 -21.421875 5.34375 -21.046875 C 5 -20.679688 4.828125 -20.050781 4.828125 -19.15625 C 4.828125 -18.300781 5.015625 -17.546875 5.390625 -16.890625 C 5.773438 -16.242188 6.25 -15.628906 6.8125 -15.046875 C 7.382812 -14.460938 7.992188 -13.878906 8.640625 -13.296875 C 9.296875 -12.722656 9.90625 -12.09375 10.46875 -11.40625 C 11.039062 -10.71875 11.515625 -9.9375 11.890625 -9.0625 C 12.273438 -8.1875 12.46875 -7.15625 12.46875 -5.96875 C 12.46875 -3.957031 11.972656 -2.410156 10.984375 -1.328125 C 10.003906 -0.253906 8.554688 0.28125 6.640625 0.28125 C 4.722656 0.28125 3.269531 -0.253906 2.28125 -1.328125 C 1.300781 -2.410156 0.8125 -3.957031 0.8125 -5.96875 L 0.8125 -7.671875 L 4.515625 -7.671875 L 4.515625 -5.71875 C 4.515625 -4.820312 4.695312 -4.191406 5.0625 -3.828125 C 5.425781 -3.472656 5.914062 -3.296875 6.53125 -3.296875 C 7.15625 -3.296875 7.648438 -3.472656 8.015625 -3.828125 C 8.378906 -4.191406 8.5625 -4.820312 8.5625 -5.71875 C 8.5625 -6.570312 8.367188 -7.320312 7.984375 -7.96875 C 7.609375 -8.625 7.132812 -9.238281 6.5625 -9.8125 C 6 -10.394531 5.390625 -10.976562 4.734375 -11.5625 C 4.085938 -12.144531 3.476562 -12.78125 2.90625 -13.46875 C 2.34375 -14.15625 1.867188 -14.9375 1.484375 -15.8125 C 1.109375 -16.6875 0.921875 -17.71875 0.921875 -18.90625 Z M 0.921875 -18.90625 "/></g></g></g><g clip-path="url(#747b6f0726)"><path fill="#545454" d="M 87.875 179.414062 L 77.804688 192.117188 L 77.804688 219.832031 L 37.28125 219.832031 L 57.984375 199.316406 L 37.28125 179.414062 Z M 335.03125 179.414062 L 284.445312 179.414062 L 294.503906 192.117188 L 294.503906 219.832031 L 335.03125 219.832031 L 314.332031 199.316406 Z M 81.363281 235.65625 L 290.261719 235.65625 L 290.261719 195.226562 L 81.363281 195.226562 Z M 81.363281 235.65625 " fill-opacity="1" fill-rule="nonzero"/></g><g fill="#ffffff" fill-opacity="1"><g transform="translate(120.925111, 225.19295)"><g><path d="M 4.5 -11.671875 L 8.765625 -11.671875 L 8.765625 -8.671875 L 4.5 -8.671875 L 4.5 0 L 1.203125 0 L 1.203125 -21 L 9.9375 -21 L 9.9375 -18 L 4.5 -18 Z M 4.5 -11.671875 "/></g></g></g><g fill="#ffffff" fill-opacity="1"><g transform="translate(131.245106, 225.19295)"><g><path d="M 4.5 -11.671875 L 8.765625 -11.671875 L 8.765625 -8.671875 L 4.5 -8.671875 L 4.5 0 L 1.203125 0 L 1.203125 -21 L 9.9375 -21 L 9.9375 -18 L 4.5 -18 Z M 4.5 -11.671875 "/></g></g></g><g fill="#ffffff" fill-opacity="1"><g transform="translate(141.565101, 225.19295)"><g/></g></g><g fill="#ffffff" fill-opacity="1"><g transform="translate(146.215099, 225.19295)"><g><path d="M 4.5 0 L 1.203125 0 L 1.203125 -21 L 4.5 -21 L 4.5 -12 L 8.25 -12 L 8.25 -21 L 11.609375 -21 L 11.609375 0 L 8.25 0 L 8.25 -9 L 4.5 -9 Z M 4.5 0 "/></g></g></g><g fill="#ffffff" fill-opacity="1"><g transform="translate(159.025088, 225.19295)"><g><path d="M 11.875 0 L 8.546875 0 L 7.984375 -3.8125 L 3.9375 -3.8125 L 3.359375 0 L 0.328125 0 L 3.6875 -21 L 8.515625 -21 Z M 4.34375 -6.65625 L 7.53125 -6.65625 L 5.9375 -17.28125 Z M 4.34375 -6.65625 "/></g></g></g><g fill="#ffffff" fill-opacity="1"><g transform="translate(171.235075, 225.19295)"><g><path d="M 4.140625 -15.203125 L 4.140625 0 L 1.171875 0 L 1.171875 -21 L 5.3125 -21 L 8.703125 -8.4375 L 8.703125 -21 L 11.640625 -21 L 11.640625 0 L 8.25 0 Z M 4.140625 -15.203125 "/></g></g></g><g fill="#ffffff" fill-opacity="1"><g transform="translate(184.045064, 225.19295)"><g><path d="M 1.203125 -21 L 6.421875 -21 C 8.078125 -21 9.3125 -20.554688 10.125 -19.671875 C 10.9375 -18.796875 11.34375 -17.507812 11.34375 -15.8125 L 11.34375 -5.1875 C 11.34375 -3.488281 10.9375 -2.195312 10.125 -1.3125 C 9.3125 -0.4375 8.078125 0 6.421875 0 L 1.203125 0 Z M 4.5 -18 L 4.5 -3 L 6.359375 -3 C 6.878906 -3 7.289062 -3.148438 7.59375 -3.453125 C 7.894531 -3.753906 8.046875 -4.285156 8.046875 -5.046875 L 8.046875 -15.953125 C 8.046875 -16.710938 7.894531 -17.242188 7.59375 -17.546875 C 7.289062 -17.847656 6.878906 -18 6.359375 -18 Z M 4.5 -18 "/></g></g></g><g fill="#ffffff" fill-opacity="1"><g transform="translate(196.285058, 225.19295)"><g><path d="M 4.296875 -6.953125 L 0.125 -21 L 3.5625 -21 L 6.09375 -11.4375 L 8.609375 -21 L 11.765625 -21 L 7.59375 -6.953125 L 7.59375 0 L 4.296875 0 Z M 4.296875 -6.953125 "/></g></g></g><g fill="#ffffff" fill-opacity="1"><g transform="translate(208.165043, 225.19295)"><g><path d="M 8.1875 -6.09375 L 10.4375 -21 L 15.03125 -21 L 15.03125 0 L 11.90625 0 L 11.90625 -15.0625 L 9.625 0 L 6.515625 0 L 4.046875 -14.84375 L 4.046875 0 L 1.171875 0 L 1.171875 -21 L 5.765625 -21 Z M 8.1875 -6.09375 "/></g></g></g><g fill="#ffffff" fill-opacity="1"><g transform="translate(224.39503, 225.19295)"><g><path d="M 11.875 0 L 8.546875 0 L 7.984375 -3.8125 L 3.9375 -3.8125 L 3.359375 0 L 0.328125 0 L 3.6875 -21 L 8.515625 -21 Z M 4.34375 -6.65625 L 7.53125 -6.65625 L 5.9375 -17.28125 Z M 4.34375 -6.65625 "/></g></g></g><g fill="#ffffff" fill-opacity="1"><g transform="translate(236.605017, 225.19295)"><g><path d="M 4.140625 -15.203125 L 4.140625 0 L 1.171875 0 L 1.171875 -21 L 5.3125 -21 L 8.703125 -8.4375 L 8.703125 -21 L 11.640625 -21 L 11.640625 0 L 8.25 0 Z M 4.140625 -15.203125 "/></g></g></g><g fill="#ffffff" fill-opacity="1"><g transform="translate(249.4212, 225.19295)"><g/></g></g></svg>